<?xml version="1.0" encoding="utf-8"?>
<!-- Generator: Adobe Illustrator 22.0.1, SVG Export Plug-In . SVG Version: 6.00 Build 0)  -->
<svg version="1.1" id="レイヤー_1" xmlns="http://www.w3.org/2000/svg" xmlns:xlink="http://www.w3.org/1999/xlink" x="0px"
	 y="0px" width="779.6px" height="720px" viewBox="0 0 779.6 720" style="enable-background:new 0 0 779.6 720;"
	 xml:space="preserve">
<style type="text/css">
	.st0{fill:#51829D;stroke:#51829D;stroke-miterlimit:10;}
	.st1{fill:#416881;}
	.st2{fill:#51829D;}
	.st3{fill:#F54403;}
	.st4{fill:#1173FD;}
	.st5{fill:#38566D;}
	.st6{fill:none;stroke:#FFFFFF;stroke-width:7.7349;stroke-linecap:round;stroke-miterlimit:10;}
	.st7{fill:#00D868;}
</style>
<g>
	<path class="st0" d="M33.3,677.4v26.5h-2.9v-26.5H33.3z"/>
	<path class="st0" d="M60.6,703.9h-2.8v-11.9c0-0.8,0-1.3,0-1.7c0-0.4-0.1-0.7-0.1-1.2c-0.1-0.4-0.2-0.8-0.3-1.1
		c-0.3-0.7-0.8-1.2-1.5-1.6c-0.7-0.4-1.4-0.6-2.2-0.6s-1.6,0.2-2.2,0.6c-0.7,0.4-1.2,0.9-1.5,1.6c-0.1,0.3-0.3,0.7-0.3,1.1
		c-0.1,0.4-0.1,0.8-0.1,1.2s0,0.9,0,1.7v11.9h-2.8v-20.2h2.8v2.1c1.4-1.6,3-2.4,4.8-2.4c1.2,0,2.3,0.3,3.3,0.9s1.7,1.3,2.2,2.3
		c0.7-1,1.5-1.8,2.5-2.3s2.1-0.9,3.3-0.9c1.4,0,2.6,0.4,3.6,1.1c1.1,0.7,1.8,1.7,2.3,3c0.2,0.4,0.3,0.9,0.4,1.4s0.1,1,0.1,1.3
		c0,0.4,0,0.9,0,1.6v12.1H69v-11.9c0-0.8,0-1.3,0-1.7c0-0.4-0.1-0.7-0.1-1.2c-0.1-0.4-0.2-0.8-0.3-1.1c-0.3-0.7-0.8-1.2-1.5-1.6
		c-0.7-0.4-1.4-0.6-2.2-0.6c-0.8,0-1.6,0.2-2.2,0.6c-0.7,0.4-1.2,0.9-1.5,1.6c-0.1,0.3-0.3,0.7-0.3,1.1c-0.1,0.4-0.1,0.8-0.1,1.2
		c0,0.4,0,0.9,0,1.7V703.9z"/>
	<path class="st0" d="M97.7,691.7v12.2h-2.8v-2.2c-1.4,1.6-3.1,2.4-5.1,2.4c-1.9,0-3.4-0.6-4.6-1.8c-1.2-1.2-1.8-2.7-1.8-4.5
		c0-1.3,0.4-2.5,1.2-3.6s1.8-1.8,3.2-2.2c0.4-0.1,0.9-0.2,1.4-0.3c0.5-0.1,0.9-0.1,1.3-0.1c0.4,0,0.9,0,1.7,0h2.8c0-1,0-1.7,0-2.1
		c0-0.4-0.1-0.8-0.3-1.2c-0.3-0.8-0.8-1.5-1.6-1.9c-0.7-0.4-1.6-0.6-2.5-0.6c-1.4,0-3,0.5-4.9,1.4l-1.1-2.3c2.3-1,4.3-1.6,6-1.6
		c1.7,0,3.1,0.4,4.4,1.2c1.2,0.8,2.1,1.9,2.5,3.4C97.6,688.6,97.7,689.8,97.7,691.7z M86.2,697.8c0,1.1,0.4,2,1.1,2.7
		c0.7,0.7,1.7,1.1,3,1.1c1,0,1.9-0.2,2.7-0.7c0.8-0.5,1.4-1.3,1.7-2.3c0.1-0.4,0.2-0.8,0.3-1.3c0.1-0.5,0.1-0.9,0.1-1.3
		c0-0.4,0-1.1,0-2h-2.7c-1.8,0-3,0.1-3.6,0.3c-0.8,0.3-1.4,0.7-1.9,1.3C86.4,696.2,86.2,697,86.2,697.8z"/>
	<path class="st0" d="M117.2,683.3c2.1,0,3.9,0.8,5.3,2.4v-2.2h2.8v18.2c0,2.2-0.1,3.7-0.3,4.5c-0.5,1.8-1.4,3.2-2.9,4.2
		c-1.4,1-3.1,1.4-5,1.4c-2,0-4.1-0.5-6.3-1.4l0.9-2.4c1.9,0.8,3.7,1.2,5.3,1.2c1.3,0,2.4-0.3,3.3-1c0.9-0.6,1.5-1.6,1.8-2.8
		c0.1-0.6,0.2-1.9,0.2-3.9c-1.5,1.6-3.2,2.4-5.3,2.4c-1.3,0-2.4-0.3-3.5-0.8c-1-0.5-1.8-1.3-2.4-2.2c-0.6-1-1-2-1.2-3.1
		s-0.3-2.5-0.3-4.3s0.1-3.2,0.3-4.3c0.2-1.1,0.6-2.1,1.2-3.1c0.6-0.9,1.4-1.6,2.4-2.2C114.7,683.6,115.9,683.3,117.2,683.3z
		 M117.5,685.8c-1.7,0-2.9,0.6-3.8,1.8c-0.5,0.6-0.8,1.4-0.9,2.4c-0.1,0.9-0.2,2.2-0.2,3.7s0.1,2.8,0.2,3.7c0.1,0.9,0.4,1.7,0.9,2.4
		c0.9,1.2,2.2,1.8,3.8,1.8c1.7,0,2.9-0.6,3.8-1.8c0.5-0.6,0.8-1.4,0.9-2.4c0.1-0.9,0.2-2.2,0.2-3.7s-0.1-2.8-0.2-3.7
		c-0.1-0.9-0.4-1.7-0.9-2.4C120.5,686.4,119.2,685.8,117.5,685.8z"/>
	<path class="st0" d="M145.5,704.2c-1.4,0-2.7-0.3-3.8-0.8c-1.1-0.5-2-1.3-2.6-2.2c-0.5-0.7-0.8-1.4-1-2.4c-0.2-0.9-0.4-1.7-0.4-2.3
		c0-0.6,0-1.5,0-2.7c0-1,0-1.7,0-2.2c0-0.5,0.1-1.1,0.2-1.8c0.1-0.7,0.3-1.3,0.5-1.9c0.5-1.4,1.4-2.5,2.6-3.3
		c1.2-0.8,2.6-1.2,4.3-1.2c1.6,0,3,0.4,4.2,1.2s2.1,1.9,2.7,3.3c0.3,0.8,0.5,1.6,0.6,2.3c0.1,0.8,0.1,1.9,0.1,3.5v0.6h-12.3
		c0,0.8,0,1.5,0,2c0,0.5,0.1,1.1,0.3,1.8c0.2,0.7,0.4,1.3,0.7,1.7c0.9,1.2,2.2,1.9,4.1,1.9c1.7,0,3.4-0.5,5.3-1.4l1.1,2.3
		C149.7,703.6,147.6,704.2,145.5,704.2z M149.9,692c0-1.4-0.2-2.5-0.5-3.4c-0.3-0.9-0.9-1.5-1.6-2c-0.8-0.5-1.6-0.8-2.6-0.8
		c-1,0-1.9,0.3-2.6,0.8c-0.7,0.5-1.3,1.2-1.6,2c-0.3,0.9-0.5,2-0.5,3.4H149.9z"/>
	<path class="st0" d="M183.1,677.4h14.6v2.6H186v9.1h10v2.6h-10v9.6h11.7v2.6h-14.6V677.4z"/>
	<path class="st0" d="M223.7,703.9h-3.2l-4.4-7.9l-4.4,7.9h-3.2l6-10.2l-5.9-10h3.2l4.3,7.7l4.3-7.7h3.2l-5.9,10L223.7,703.9z"/>
	<path class="st0" d="M235.4,698.2v-12.3h-2.8v-2.3h2.8v-4.4h2.8v4.4h3.7v2.3h-3.7v12.3c0,1.3,0.1,2.2,0.2,2.4c0.3,0.7,0.8,1,1.6,1
		c0.6,0,1.4-0.2,2.1-0.6l1.1,2.3c-1.2,0.5-2.3,0.8-3.4,0.8c-1.1,0-2-0.3-2.7-0.8c-0.7-0.5-1.2-1.2-1.5-2.2
		C235.5,700.7,235.4,699.7,235.4,698.2z"/>
	<path class="st0" d="M256.8,685.7c1.4-1.6,2.9-2.4,4.8-2.4c0.5,0,1.1,0.1,1.7,0.2l-0.4,2.5c-0.8-0.1-1.3-0.2-1.7-0.2
		c-0.9,0-1.8,0.2-2.5,0.7c-0.7,0.4-1.2,1.1-1.5,1.8c-0.3,0.7-0.4,1.8-0.4,3.5v12H254v-20.2h2.8V685.7z"/>
	<path class="st0" d="M287.2,691.7v12.2h-2.8v-2.2c-1.4,1.6-3.1,2.4-5.1,2.4c-1.9,0-3.4-0.6-4.6-1.8c-1.2-1.2-1.8-2.7-1.8-4.5
		c0-1.3,0.4-2.5,1.2-3.6s1.8-1.8,3.2-2.2c0.4-0.1,0.9-0.2,1.4-0.3c0.5-0.1,0.9-0.1,1.3-0.1c0.4,0,0.9,0,1.7,0h2.8c0-1,0-1.7,0-2.1
		c0-0.4-0.1-0.8-0.3-1.2c-0.3-0.8-0.8-1.5-1.6-1.9c-0.7-0.4-1.6-0.6-2.5-0.6c-1.4,0-3,0.5-4.9,1.4l-1.1-2.3c2.3-1,4.3-1.6,6-1.6
		c1.7,0,3.1,0.4,4.4,1.2c1.2,0.8,2.1,1.9,2.5,3.4C287.1,688.6,287.2,689.8,287.2,691.7z M275.6,697.8c0,1.1,0.4,2,1.1,2.7
		c0.7,0.7,1.7,1.1,3,1.1c1,0,1.9-0.2,2.7-0.7c0.8-0.5,1.4-1.3,1.7-2.3c0.1-0.4,0.2-0.8,0.3-1.3c0.1-0.5,0.1-0.9,0.1-1.3
		c0-0.4,0-1.1,0-2h-2.7c-1.8,0-3,0.1-3.6,0.3c-0.8,0.3-1.4,0.7-1.9,1.3C275.8,696.2,275.6,697,275.6,697.8z"/>
	<path class="st0" d="M306.9,683.3c2.1,0,4.1,0.6,6.1,1.9l-1.3,2.2c-1.6-1.1-3.2-1.6-4.8-1.6c-1.6,0-2.9,0.7-3.8,2
		c-0.3,0.5-0.6,1.1-0.7,1.9c-0.2,0.8-0.3,1.4-0.3,1.9c0,0.5,0,1.2,0,2.1c0,1,0,1.7,0,2.2c0,0.5,0.1,1.1,0.3,1.9
		c0.1,0.7,0.4,1.3,0.7,1.8c0.4,0.7,1,1.3,1.7,1.6s1.4,0.5,2.2,0.5c0.8,0,1.7-0.2,2.7-0.5s1.7-0.7,2.4-1.2l1.4,2.1
		c-0.9,0.6-1.9,1.1-3.1,1.5c-1.2,0.4-2.3,0.6-3.4,0.6c-1.4,0-2.7-0.3-3.8-0.9c-1.1-0.6-2-1.5-2.6-2.5c-0.4-0.7-0.7-1.5-0.9-2.3
		c-0.2-0.8-0.3-1.6-0.3-2.2c0-0.6,0-1.5,0-2.6c0-1,0-1.8,0-2.3c0-0.6,0.1-1.3,0.3-2.2c0.2-0.9,0.5-1.7,0.9-2.3
		c0.6-1,1.5-1.8,2.6-2.5C304.2,683.6,305.4,683.3,306.9,683.3z"/>
	<path class="st0" d="M325.3,698.2v-12.3h-2.8v-2.3h2.8v-4.4h2.8v4.4h3.7v2.3h-3.7v12.3c0,1.3,0.1,2.2,0.2,2.4c0.3,0.7,0.8,1,1.6,1
		c0.6,0,1.4-0.2,2.1-0.6l1.1,2.3c-1.2,0.5-2.3,0.8-3.4,0.8c-1.1,0-2-0.3-2.7-0.8c-0.7-0.5-1.2-1.2-1.5-2.2
		C325.4,700.7,325.3,699.7,325.3,698.2z"/>
	<path class="st0" d="M347.8,684c1-0.4,2.1-0.6,3.4-0.6s2.4,0.2,3.4,0.6c1,0.4,1.8,1,2.5,1.7c0.5,0.5,0.9,1.1,1.2,1.8
		c0.3,0.6,0.5,1.4,0.6,2.2s0.2,1.4,0.2,2c0,0.5,0,1.2,0,2.2s0,1.6,0,2.2c0,0.5-0.1,1.2-0.2,2s-0.3,1.5-0.6,2.2
		c-0.3,0.6-0.7,1.2-1.2,1.8c-0.6,0.7-1.5,1.3-2.5,1.7c-1,0.4-2.1,0.6-3.4,0.6s-2.4-0.2-3.4-0.6c-1-0.4-1.8-1-2.5-1.7
		c-0.5-0.5-0.9-1.1-1.2-1.8c-0.3-0.6-0.5-1.4-0.6-2.2c-0.1-0.8-0.2-1.4-0.2-2s0-1.2,0-2.2s0-1.6,0-2.2s0.1-1.2,0.2-2
		c0.1-0.8,0.3-1.5,0.6-2.2c0.3-0.6,0.7-1.2,1.2-1.8C346,685,346.8,684.4,347.8,684z M351.2,685.8c-1.6,0-2.9,0.5-3.7,1.5
		c-0.3,0.4-0.6,0.8-0.8,1.3c-0.2,0.5-0.3,1-0.4,1.7c-0.1,0.6-0.1,1.2-0.1,1.6c0,0.4,0,1,0,1.8s0,1.4,0,1.8c0,0.4,0.1,1,0.1,1.6
		c0.1,0.6,0.2,1.2,0.4,1.7c0.2,0.5,0.5,0.9,0.8,1.3c0.9,1,2.1,1.5,3.7,1.5c1.6,0,2.9-0.5,3.7-1.5c0.3-0.4,0.6-0.8,0.8-1.3
		c0.2-0.5,0.3-1,0.4-1.7c0.1-0.6,0.1-1.2,0.1-1.6c0-0.4,0-1,0-1.8s0-1.4,0-1.8c0-0.4-0.1-1-0.1-1.6c-0.1-0.6-0.2-1.2-0.4-1.7
		c-0.2-0.5-0.5-0.9-0.8-1.3C354,686.3,352.8,685.8,351.2,685.8z"/>
	<path class="st0" d="M374.1,685.7c1.4-1.6,2.9-2.4,4.8-2.4c0.5,0,1.1,0.1,1.7,0.2l-0.4,2.5c-0.8-0.1-1.3-0.2-1.7-0.2
		c-0.9,0-1.8,0.2-2.5,0.7c-0.7,0.4-1.2,1.1-1.5,1.8c-0.3,0.7-0.4,1.8-0.4,3.5v12h-2.8v-20.2h2.8V685.7z"/>
	<path class="st0" d="M410.1,682.5c0-0.8,0-1.5,0-1.9c0-0.4,0.1-0.9,0.3-1.5c0.2-0.6,0.4-1.1,0.7-1.5c1-1.4,2.4-2,4.3-2
		c0.7,0,1.6,0.1,2.6,0.3l-0.5,2.5c-0.8-0.2-1.5-0.3-2.1-0.3c-0.9,0-1.5,0.3-1.9,0.9c-0.3,0.4-0.4,0.8-0.5,1.3
		c-0.1,0.5-0.1,1.2-0.1,2.2v1.1h3.7v2.3h-3.7v17.9h-2.8v-17.9h-2.8v-2.3h2.8V682.5z"/>
	<path class="st0" d="M431.5,684c1-0.4,2.1-0.6,3.4-0.6s2.4,0.2,3.4,0.6c1,0.4,1.8,1,2.5,1.7c0.5,0.5,0.9,1.1,1.2,1.8
		c0.3,0.6,0.5,1.4,0.6,2.2s0.2,1.4,0.2,2c0,0.5,0,1.2,0,2.2s0,1.6,0,2.2c0,0.5-0.1,1.2-0.2,2s-0.3,1.5-0.6,2.2
		c-0.3,0.6-0.7,1.2-1.2,1.8c-0.6,0.7-1.5,1.3-2.5,1.7c-1,0.4-2.1,0.6-3.4,0.6s-2.4-0.2-3.4-0.6c-1-0.4-1.8-1-2.5-1.7
		c-0.5-0.5-0.9-1.1-1.2-1.8c-0.3-0.6-0.5-1.4-0.6-2.2c-0.1-0.8-0.2-1.4-0.2-2s0-1.2,0-2.2s0-1.6,0-2.2s0.1-1.2,0.2-2
		c0.1-0.8,0.3-1.5,0.6-2.2c0.3-0.6,0.7-1.2,1.2-1.8C429.7,685,430.5,684.4,431.5,684z M434.9,685.8c-1.6,0-2.9,0.5-3.7,1.5
		c-0.3,0.4-0.6,0.8-0.8,1.3c-0.2,0.5-0.3,1-0.4,1.7c-0.1,0.6-0.1,1.2-0.1,1.6c0,0.4,0,1,0,1.8s0,1.4,0,1.8c0,0.4,0.1,1,0.1,1.6
		c0.1,0.6,0.2,1.2,0.4,1.7c0.2,0.5,0.5,0.9,0.8,1.3c0.9,1,2.1,1.5,3.7,1.5c1.6,0,2.9-0.5,3.7-1.5c0.3-0.4,0.6-0.8,0.8-1.3
		c0.2-0.5,0.3-1,0.4-1.7c0.1-0.6,0.1-1.2,0.1-1.6c0-0.4,0-1,0-1.8s0-1.4,0-1.8c0-0.4-0.1-1-0.1-1.6c-0.1-0.6-0.2-1.2-0.4-1.7
		c-0.2-0.5-0.5-0.9-0.8-1.3C437.8,686.3,436.5,685.8,434.9,685.8z"/>
	<path class="st0" d="M457.9,685.7c1.4-1.6,2.9-2.4,4.8-2.4c0.5,0,1.1,0.1,1.7,0.2l-0.4,2.5c-0.8-0.1-1.3-0.2-1.7-0.2
		c-0.9,0-1.8,0.2-2.5,0.7c-0.7,0.4-1.2,1.1-1.5,1.8c-0.3,0.7-0.4,1.8-0.4,3.5v12h-2.8v-20.2h2.8V685.7z"/>
	<path class="st0" d="M496.7,678.3c1.4-0.9,3-1.3,5-1.3c1.9,0,3.6,0.4,5,1.3c1.4,0.9,2.4,2,3.1,3.5c0.4,0.8,0.7,1.8,0.9,3
		c0.2,1.1,0.3,2.1,0.3,2.8c0,0.7,0,1.8,0,3c0,1.3,0,2.3,0,3c0,0.7-0.1,1.7-0.3,2.8c-0.2,1.1-0.5,2.1-0.9,3c-0.7,1.5-1.7,2.6-3.1,3.5
		c-1.4,0.9-3,1.3-5,1.3c-1.9,0-3.6-0.4-5-1.3c-1.4-0.9-2.4-2-3.1-3.5c-0.4-0.8-0.7-1.8-0.9-3c-0.2-1.1-0.3-2.1-0.3-2.8s0-1.8,0-3
		c0-1.3,0-2.3,0-3s0.1-1.7,0.3-2.8c0.2-1.1,0.5-2.1,0.9-3C494.3,680.3,495.3,679.2,496.7,678.3z M505,680.5c-0.9-0.6-2-0.8-3.3-0.8
		s-2.4,0.3-3.3,0.8s-1.6,1.3-2,2.3c-0.3,0.7-0.5,1.5-0.7,2.5c-0.2,1-0.2,1.8-0.3,2.5c0,0.7,0,1.6,0,2.8s0,2.1,0,2.8
		c0,0.7,0.1,1.6,0.3,2.5c0.2,1,0.4,1.8,0.7,2.5c0.4,1,1.1,1.8,2,2.3c0.9,0.6,2,0.8,3.3,0.8s2.4-0.3,3.3-0.8c0.9-0.6,1.6-1.3,2-2.3
		c0.3-0.7,0.5-1.5,0.7-2.5c0.2-1,0.2-1.8,0.3-2.5c0-0.7,0-1.6,0-2.8s0-2.1,0-2.8c0-0.7-0.1-1.6-0.3-2.5c-0.2-1-0.4-1.8-0.7-2.5
		C506.6,681.8,505.9,681,505,680.5z"/>
	<path class="st0" d="M524.2,682.5c0-0.8,0-1.5,0-1.9c0-0.4,0.1-0.9,0.3-1.5c0.2-0.6,0.4-1.1,0.7-1.5c1-1.4,2.4-2,4.3-2
		c0.7,0,1.6,0.1,2.6,0.3l-0.5,2.5c-0.8-0.2-1.5-0.3-2.1-0.3c-0.9,0-1.5,0.3-1.9,0.9c-0.3,0.4-0.4,0.8-0.5,1.3
		c-0.1,0.5-0.1,1.2-0.1,2.2v1.1h3.7v2.3h-3.7v17.9h-2.8v-17.9h-2.8v-2.3h2.8V682.5z"/>
	<path class="st0" d="M542.6,682.5c0-0.8,0-1.5,0-1.9c0-0.4,0.1-0.9,0.3-1.5c0.2-0.6,0.4-1.1,0.7-1.5c1-1.4,2.4-2,4.3-2
		c0.7,0,1.6,0.1,2.6,0.3l-0.5,2.5c-0.8-0.2-1.5-0.3-2.1-0.3c-0.9,0-1.5,0.3-1.9,0.9c-0.3,0.4-0.4,0.8-0.5,1.3
		c-0.1,0.5-0.1,1.2-0.1,2.2v1.1h3.7v2.3h-3.7v17.9h-2.8v-17.9h-2.8v-2.3h2.8V682.5z"/>
	<path class="st0" d="M560.3,677.5c0.3-0.3,0.8-0.5,1.3-0.5c0.5,0,0.9,0.2,1.3,0.5c0.3,0.3,0.5,0.8,0.5,1.3c0,0.5-0.2,0.9-0.5,1.3
		c-0.3,0.3-0.8,0.5-1.3,0.5c-0.5,0-0.9-0.2-1.3-0.5c-0.3-0.3-0.5-0.8-0.5-1.3C559.8,678.3,560,677.8,560.3,677.5z M563,703.9h-2.8
		v-20.2h2.8V703.9z"/>
	<path class="st0" d="M583,683.3c2.1,0,4.1,0.6,6.1,1.9l-1.3,2.2c-1.6-1.1-3.2-1.6-4.8-1.6c-1.6,0-2.9,0.7-3.8,2
		c-0.3,0.5-0.6,1.1-0.7,1.9c-0.2,0.8-0.3,1.4-0.3,1.9c0,0.5,0,1.2,0,2.1c0,1,0,1.7,0,2.2s0.1,1.1,0.3,1.9c0.2,0.7,0.4,1.3,0.7,1.8
		c0.4,0.7,1,1.3,1.7,1.6c0.7,0.3,1.4,0.5,2.2,0.5c0.8,0,1.7-0.2,2.7-0.5c0.9-0.3,1.7-0.7,2.4-1.2l1.4,2.1c-0.9,0.6-1.9,1.1-3.1,1.5
		c-1.2,0.4-2.3,0.6-3.4,0.6c-1.4,0-2.7-0.3-3.8-0.9c-1.1-0.6-2-1.5-2.6-2.5c-0.4-0.7-0.7-1.5-0.9-2.3c-0.2-0.8-0.3-1.6-0.3-2.2
		c0-0.6,0-1.5,0-2.6c0-1,0-1.8,0-2.3c0-0.6,0.1-1.3,0.3-2.2c0.2-0.9,0.5-1.7,0.9-2.3c0.6-1,1.5-1.8,2.6-2.5S581.6,683.3,583,683.3z"
		/>
	<path class="st0" d="M608.2,704.2c-1.4,0-2.7-0.3-3.8-0.8c-1.1-0.5-2-1.3-2.6-2.2c-0.5-0.7-0.8-1.4-1-2.4s-0.4-1.7-0.4-2.3
		c0-0.6,0-1.5,0-2.7c0-1,0-1.7,0-2.2s0.1-1.1,0.2-1.8c0.1-0.7,0.3-1.3,0.5-1.9c0.5-1.4,1.4-2.5,2.6-3.3c1.2-0.8,2.6-1.2,4.3-1.2
		c1.6,0,3,0.4,4.2,1.2s2.1,1.9,2.7,3.3c0.3,0.8,0.5,1.6,0.6,2.3s0.1,1.9,0.1,3.5v0.6H603c0,0.8,0,1.5,0,2c0,0.5,0.1,1.1,0.3,1.8
		c0.2,0.7,0.4,1.3,0.7,1.7c0.9,1.2,2.2,1.9,4.1,1.9c1.7,0,3.4-0.5,5.3-1.4l1.1,2.3C612.4,703.6,610.3,704.2,608.2,704.2z M612.6,692
		c0-1.4-0.2-2.5-0.5-3.4c-0.3-0.9-0.9-1.5-1.6-2c-0.8-0.5-1.6-0.8-2.6-0.8c-1,0-1.9,0.3-2.6,0.8c-0.7,0.5-1.3,1.2-1.6,2
		c-0.3,0.9-0.5,2-0.5,3.4H612.6z"/>
	<path class="st0" d="M645.8,677.4H660v2.6h-11.3v9.1h9.8v2.6h-9.8v12.2h-2.9V677.4z"/>
	<path class="st0" d="M672.4,677.5c0.3-0.3,0.8-0.5,1.3-0.5c0.5,0,0.9,0.2,1.3,0.5c0.3,0.3,0.5,0.8,0.5,1.3c0,0.5-0.2,0.9-0.5,1.3
		c-0.3,0.3-0.8,0.5-1.3,0.5c-0.5,0-0.9-0.2-1.3-0.5c-0.3-0.3-0.5-0.8-0.5-1.3C671.9,678.3,672.1,677.8,672.4,677.5z M675.1,703.9
		h-2.8v-20.2h2.8V703.9z"/>
	<path class="st0" d="M692.6,701.5l0.4,2.4c-0.5,0.1-1.1,0.2-1.7,0.2c-1,0-1.9-0.4-2.5-1.2c-0.5-0.6-0.7-1.5-0.7-2.6v-24.4h2.8v24.4
		c0,0.6,0.1,0.9,0.2,1.1c0.1,0.2,0.4,0.3,0.7,0.3C692,701.6,692.3,701.6,692.6,701.5z"/>
	<path class="st0" d="M711.3,704.2c-1.4,0-2.7-0.3-3.8-0.8c-1.1-0.5-2-1.3-2.6-2.2c-0.5-0.7-0.8-1.4-1-2.4s-0.4-1.7-0.4-2.3
		c0-0.6,0-1.5,0-2.7c0-1,0-1.7,0-2.2s0.1-1.1,0.2-1.8c0.1-0.7,0.3-1.3,0.5-1.9c0.5-1.4,1.4-2.5,2.6-3.3c1.2-0.8,2.6-1.2,4.3-1.2
		c1.6,0,3,0.4,4.2,1.2s2.1,1.9,2.7,3.3c0.3,0.8,0.5,1.6,0.6,2.3s0.1,1.9,0.1,3.5v0.6h-12.3c0,0.8,0,1.5,0,2c0,0.5,0.1,1.1,0.3,1.8
		c0.2,0.7,0.4,1.3,0.7,1.7c0.9,1.2,2.2,1.9,4.1,1.9c1.7,0,3.4-0.5,5.3-1.4l1.1,2.3C715.5,703.6,713.4,704.2,711.3,704.2z M715.7,692
		c0-1.4-0.2-2.5-0.5-3.4c-0.3-0.9-0.9-1.5-1.6-2c-0.8-0.5-1.6-0.8-2.6-0.8c-1,0-1.9,0.3-2.6,0.8c-0.7,0.5-1.3,1.2-1.6,2
		c-0.3,0.9-0.5,2-0.5,3.4H715.7z"/>
	<path class="st0" d="M736.6,683.3c1.9,0,4,0.5,6.4,1.5l-1,2.4c-2.2-0.9-4-1.4-5.5-1.4c-0.7,0-1.4,0.1-1.9,0.3s-1,0.5-1.2,0.8
		s-0.5,0.7-0.6,1c-0.1,0.3-0.2,0.7-0.2,1c0,0.6,0.2,1.2,0.5,1.6s0.8,0.8,1.3,1.1c0.5,0.2,1.3,0.4,2.5,0.6c1.2,0.2,2.1,0.4,2.9,0.7
		c1.1,0.4,2,1.1,2.8,2s1.1,2,1.1,3.3c0,1.6-0.6,3-1.9,4.2s-3,1.8-5.3,1.8c-2.1,0-4.5-0.6-7.1-1.7l1-2.3c2.3,1,4.3,1.6,6.1,1.6
		c0.8,0,1.5-0.1,2-0.3c0.6-0.2,1-0.5,1.4-0.8c0.3-0.3,0.6-0.7,0.7-1.1c0.2-0.4,0.2-0.8,0.2-1.2c0-0.7-0.2-1.3-0.6-1.9
		c-0.4-0.5-0.9-0.9-1.6-1.1c-0.4-0.2-1.3-0.3-2.6-0.5s-2.3-0.5-3.1-0.8c-1-0.4-1.8-1.1-2.4-1.9c-0.6-0.8-0.9-1.8-0.9-3
		c0-1.5,0.6-2.9,1.8-4S734.6,683.3,736.6,683.3z"/>
</g>
<g>
	<path class="st1" d="M152.1,585.4c-0.6-0.7-1.6-1.4-2.8-2.2c-1.2-0.8-2.6-1.5-4.3-2.2c-1.6-0.7-3.4-1.3-5.3-1.7
		c-1.9-0.4-3.9-0.7-6-0.7c-4.5,0-7.8,0.8-10,2.5c-2.1,1.7-3.2,3.9-3.2,6.9c0,1.7,0.3,3,1,4.1c0.7,1,1.7,2,3.1,2.8
		c1.4,0.8,3.2,1.5,5.3,2.1c2.1,0.6,4.6,1.3,7.4,2c3.4,0.8,6.5,1.8,9.3,2.8c2.8,1,5.1,2.3,7,3.7c1.9,1.5,3.4,3.3,4.4,5.4
		c1.1,2.1,1.6,4.7,1.6,7.8c0,3.4-0.7,6.4-2,8.9c-1.3,2.5-3.1,4.5-5.3,6.1c-2.3,1.6-4.9,2.7-7.9,3.4c-3,0.7-6.2,1.1-9.6,1.1
		c-5.2,0-10.1-0.8-14.9-2.3c-4.8-1.6-9.2-3.8-13-6.8l4.9-9.2c0.8,0.8,2,1.8,3.6,2.8c1.6,1,3.4,2,5.4,2.8c2.1,0.9,4.3,1.6,6.7,2.2
		c2.4,0.6,4.9,0.9,7.5,0.9c4.2,0,7.4-0.7,9.7-2.2c2.3-1.5,3.4-3.6,3.4-6.5c0-1.7-0.4-3.2-1.3-4.3c-0.9-1.1-2.1-2.1-3.7-3
		c-1.6-0.9-3.5-1.6-5.8-2.3c-2.3-0.7-4.9-1.4-7.8-2.2c-3.4-0.9-6.3-1.8-8.8-2.8c-2.5-1-4.6-2.2-6.3-3.6c-1.7-1.4-2.9-3-3.8-4.9
		c-0.9-1.9-1.3-4.2-1.3-6.8c0-3.3,0.6-6.3,1.9-8.8c1.3-2.6,3-4.7,5.2-6.5c2.2-1.8,4.8-3.1,7.8-4c3-0.9,6.2-1.3,9.7-1.3
		c4.6,0,8.8,0.7,12.7,2.2c3.9,1.5,7.3,3.3,10.2,5.4L152.1,585.4z"/>
	<path class="st1" d="M229.2,628.1c3.6,0,6.5-0.7,8.9-2.1c2.4-1.4,4.3-3.2,5.7-5.5c1.4-2.3,2.5-4.8,3.1-7.7c0.6-2.9,0.9-5.9,0.9-8.9
		v-34.4h10.8v34.4c0,4.6-0.5,9-1.6,13.1c-1.1,4.1-2.8,7.7-5.2,10.8c-2.4,3.1-5.4,5.5-9.1,7.3c-3.7,1.8-8.2,2.7-13.4,2.7
		c-5.4,0-10-0.9-13.7-2.8c-3.7-1.9-6.7-4.4-9-7.5c-2.3-3.2-3.9-6.8-5-10.8c-1-4.1-1.5-8.3-1.5-12.7v-34.4h10.7v34.4
		c0,3.1,0.3,6.1,0.9,9c0.6,2.9,1.6,5.5,3.1,7.7c1.4,2.3,3.3,4.1,5.7,5.4C222.8,627.4,225.7,628.1,229.2,628.1z"/>
	<path class="st1" d="M303.3,637.3v-67.8H314v67.8H303.3z"/>
	<path class="st1" d="M409.6,578.9h-22.5v58.4h-10.8v-58.4h-22.6v-9.5h56V578.9z"/>
	<path class="st1" d="M467.9,637.8c-4.8,0-9.3-1-13.2-2.9c-4-1.9-7.4-4.5-10.3-7.7c-2.9-3.2-5.1-6.9-6.6-11
		c-1.6-4.1-2.3-8.4-2.3-12.7c0-4.5,0.8-8.8,2.5-13c1.7-4.1,3.9-7.8,6.8-11c2.9-3.2,6.3-5.7,10.3-7.6c4-1.9,8.3-2.8,13-2.8
		c4.8,0,9.2,1,13.2,3c4,2,7.4,4.6,10.2,7.9c2.8,3.2,5,6.9,6.6,11c1.6,4.1,2.3,8.3,2.3,12.6c0,4.5-0.8,8.9-2.4,13
		c-1.6,4.1-3.9,7.8-6.8,10.9c-2.9,3.2-6.4,5.7-10.4,7.5C476.9,636.8,472.6,637.8,467.9,637.8z M446.3,603.4c0,3.2,0.5,6.3,1.5,9.3
		c1,3,2.5,5.6,4.3,7.9c1.9,2.3,4.2,4.1,6.8,5.5c2.7,1.4,5.7,2.1,9,2.1c3.4,0,6.5-0.7,9.1-2.1c2.6-1.4,4.9-3.3,6.7-5.7
		c1.8-2.4,3.2-5,4.2-7.9c1-2.9,1.4-5.9,1.4-9c0-3.2-0.5-6.4-1.5-9.3c-1-3-2.5-5.6-4.3-7.8c-1.9-2.3-4.1-4.1-6.8-5.4
		c-2.6-1.4-5.6-2.1-8.8-2.1c-3.4,0-6.5,0.7-9.2,2.1s-4.9,3.3-6.8,5.6c-1.8,2.3-3.3,4.9-4.3,7.9C446.8,597.3,446.3,600.3,446.3,603.4
		z"/>
	<path class="st1" d="M532.6,637.3v-67.8h29.5c3.1,0,5.9,0.6,8.5,1.9c2.6,1.3,4.8,2.9,6.6,5c1.8,2.1,3.3,4.4,4.3,7.1
		c1.1,2.6,1.6,5.3,1.6,8.1c0,2.3-0.3,4.5-1,6.6c-0.6,2.1-1.5,4-2.7,5.8c-1.1,1.8-2.5,3.3-4.2,4.6c-1.7,1.3-3.5,2.3-5.4,2.9l16,25.8
		h-12.1l-14.7-23.6h-15.7v23.6H532.6z M543.3,604.3H562c1.5,0,2.9-0.3,4.2-1c1.2-0.7,2.3-1.6,3.2-2.8c0.9-1.2,1.6-2.5,2.1-4.1
		c0.5-1.5,0.8-3.2,0.8-4.9c0-1.7-0.3-3.3-0.9-4.9c-0.6-1.5-1.4-2.9-2.4-4c-1-1.1-2.1-2.1-3.4-2.7c-1.3-0.7-2.7-1-4.1-1h-18.1V604.3z
		"/>
	<path class="st1" d="M626.3,637.3v-67.8H637v67.8H626.3z"/>
</g>
<g>
	<path class="st2" d="M434.6,373.7c-8.7,21.1-13.6,44.2-13.6,68.5c0,28.7,6.8,55.8,18.8,79.9h321c12-24.1,18.8-51.2,18.8-79.9
		c0-99-80.3-179.3-179.3-179.3"/>
	<polygon class="st2" points="180.2,522.1 0,522.1 140.1,382 	"/>
	<path class="st3" d="M542,142.6c1.4,9.9,2.2,20,2.2,30.4c0,118.5-96.1,214.6-214.6,214.6c-61.6,0-117.1-26-156.2-67.5
		c8.9,113.1,103.3,202.1,218.7,202.1c121.2,0,219.4-98.2,219.4-219.4C611.4,239.5,584.7,182.6,542,142.6z"/>
	<path class="st4" d="M596.6,89.7c1.6,11.3,2.5,22.8,2.5,34.6c0,135.1-109.5,244.5-244.5,244.5c-70.2,0-133.4-29.6-178-76.9
		c10.1,128.8,117.7,230.2,249.2,230.2c138.1,0,250-111.9,250-250C675.7,200.1,645.2,135.3,596.6,89.7z"/>
	<rect x="345.5" y="445.2" class="st5" width="96.1" height="76.9"/>
	<path class="st1" d="M428.2,522.1c12.7-25.6,20-54.4,20-84.9c0-105.2-85.3-190.5-190.5-190.5S67.1,332,67.1,437.2
		c0,30.5,7.2,59.3,20,84.9H428.2z"/>
	<path class="st6" d="M182.8,396.2c5.8,20.6-6.1,41.9-26.7,47.7s-41.9-6.1-47.7-26.7"/>
	<path class="st7" d="M384.8,522.1h96.5c145-23.2,255.8-148.7,255.8-300.2c0-87.5-37-166.4-96.2-221.9c1.9,13.8,3,27.8,3,42.1
		c0.7,191.2-133.2,297.4-297.4,297.4"/>
	<path class="st1" d="M685.3,52.2c-40.2,222.4-261.5,277.1-261.5,277.1l-235.7-47.1c20.2,82.3,72.9,215.5,204,239.8h96.4
		c189.7-28.6,248.6-193.4,248.6-301.7C737.1,119.9,685.3,52.2,685.3,52.2z"/>
	<rect x="365.3" y="485.8" class="st1" width="91.8" height="36.3"/>
</g>
<g>
</g>
<g>
</g>
<g>
</g>
<g>
</g>
<g>
</g>
<g>
</g>
<g>
</g>
<g>
</g>
<g>
</g>
<g>
</g>
<g>
</g>
<g>
</g>
<g>
</g>
<g>
</g>
<g>
</g>
</svg>
