<?xml version="1.0" encoding="utf-8"?>
<!-- Generator: Adobe Illustrator 22.0.1, SVG Export Plug-In . SVG Version: 6.00 Build 0)  -->
<svg version="1.1" id="レイヤー_1" xmlns="http://www.w3.org/2000/svg" xmlns:xlink="http://www.w3.org/1999/xlink" x="0px"
	 y="0px" width="396px" height="226.3px" viewBox="0 0 396 226.3" style="enable-background:new 0 0 396 226.3;"
	 xml:space="preserve">
<style type="text/css">
	.st0{fill:#FFFFFF;stroke:#29367D;stroke-width:2;stroke-miterlimit:10;}
	.st1{fill:#0173B9;}
	.st2{fill:#FFFFFF;}
	.st3{fill:#FFFFFF;stroke:#0173B9;stroke-width:0.5536;stroke-miterlimit:10;}
	.st4{fill:#FFFFFF;stroke:#0173B9;stroke-width:0.6741;stroke-miterlimit:10;}
	.st5{fill:#EAAE1B;}
	.st6{fill:#FFFFFF;stroke:#EAAE1B;stroke-width:0.5536;stroke-miterlimit:10;}
	.st7{fill:#FFFFFF;stroke:#EAAE1B;stroke-width:0.6741;stroke-miterlimit:10;}
	.st8{fill:#29367D;}
	.st9{fill:#FFFFFF;stroke:#036F35;stroke-width:2;stroke-miterlimit:10;}
	.st10{fill:#0A6F3A;}
	.st11{fill:#FFFFFF;stroke:#DD5A28;stroke-width:2;stroke-miterlimit:10;}
	.st12{fill:#DD5A28;}
	.st13{fill:url(#SVGID_1_);}
	.st14{fill:#51829D;}
	.st15{fill:#F54403;}
	.st16{fill:#1173FD;}
	.st17{fill:#38566D;}
	.st18{fill:#416881;}
	.st19{fill:none;stroke:#FFFFFF;stroke-width:1.4013;stroke-linecap:round;stroke-miterlimit:10;}
	.st20{fill:#00D868;}
	.st21{fill:none;stroke:#064875;stroke-width:7;stroke-miterlimit:10;}
	.st22{fill:#064875;}
</style>
<g>
	<g>
		<path class="st0" d="M27.3,63.3h37.5c1.2,0,2.3-1,2.3-2.3V13.5c0-1.2-1-2.3-2.3-2.3H27.3c-1.2,0-2.3,1-2.3,2.3V61
			C25,62.3,26,63.3,27.3,63.3z"/>
		<g>
			<rect x="29" y="27.3" class="st1" width="33.2" height="26"/>
			<circle class="st2" cx="40.8" cy="37.8" r="7.6"/>
			<rect x="45.2" y="33.1" class="st3" width="13.4" height="13.4"/>
			<polygon class="st4" points="45.4,35.6 36.4,51.1 54.4,51.1 			"/>
		</g>
		<g>
			<rect x="45.8" y="41.2" class="st5" width="33.2" height="26"/>
			<circle class="st2" cx="57.6" cy="51.7" r="7.6"/>
			<rect x="62" y="47" class="st6" width="13.4" height="13.4"/>
			<polygon class="st7" points="62.2,49.5 53.2,65 71.2,65 			"/>
		</g>
		<path class="st8" d="M37.1,74.5L1.7,64.7c-1-0.3-1.7-1.2-1.7-2.2V12c0-1,0.7-1.9,1.7-2.2l35.4-9.7C38.5-0.3,40,0.8,40,2.3v69.9
			C40,73.8,38.5,74.9,37.1,74.5z"/>
	</g>
	<g>
		<path class="st9" d="M31.3,147.3h37.5c1.2,0,2.3-1,2.3-2.3V97.5c0-1.2-1-2.3-2.3-2.3H31.3c-1.2,0-2.3,1-2.3,2.3V145
			C29,146.3,30,147.3,31.3,147.3z"/>
		<g>
			<rect x="33" y="114.3" class="st1" width="33.2" height="26"/>
			<circle class="st2" cx="44.8" cy="124.8" r="7.6"/>
			<rect x="49.2" y="120.1" class="st3" width="13.4" height="13.4"/>
			<polygon class="st4" points="49.4,122.6 40.4,138.1 58.4,138.1 			"/>
		</g>
		<g>
			<rect x="49.8" y="128.2" class="st5" width="33.2" height="26"/>
			<circle class="st2" cx="61.6" cy="138.7" r="7.6"/>
			<rect x="66" y="134" class="st6" width="13.4" height="13.4"/>
			<polygon class="st7" points="66.2,136.5 57.2,152 75.2,152 			"/>
		</g>
		<path class="st10" d="M41.1,158.5l-35.4-9.7c-1-0.3-1.7-1.2-1.7-2.2V96c0-1,0.7-1.9,1.7-2.2l35.4-9.7c1.5-0.4,2.9,0.7,2.9,2.2
			v69.9C44,157.8,42.5,158.9,41.1,158.5z"/>
	</g>
	<g>
		<path class="st11" d="M113.3,100.3h37.5c1.2,0,2.3-1,2.3-2.3V50.5c0-1.2-1-2.3-2.3-2.3h-37.5c-1.2,0-2.3,1-2.3,2.3V98
			C111,99.3,112,100.3,113.3,100.3z"/>
		<g>
			<rect x="115" y="67.3" class="st1" width="33.2" height="26"/>
			<circle class="st2" cx="126.8" cy="77.8" r="7.6"/>
			<rect x="131.2" y="73.1" class="st3" width="13.4" height="13.4"/>
			<polygon class="st4" points="131.4,75.6 122.4,91.1 140.4,91.1 			"/>
		</g>
		<g>
			<rect x="131.8" y="81.2" class="st5" width="33.2" height="26"/>
			<circle class="st2" cx="143.6" cy="91.7" r="7.6"/>
			<rect x="148" y="87" class="st6" width="13.4" height="13.4"/>
			<polygon class="st7" points="148.2,89.5 139.2,105 157.2,105 			"/>
		</g>
		<path class="st12" d="M123.1,111.5l-35.4-9.7c-1-0.3-1.7-1.2-1.7-2.2V49c0-1,0.7-1.9,1.7-2.2l35.4-9.7c1.5-0.4,2.9,0.7,2.9,2.2
			v69.9C126,110.8,124.5,111.9,123.1,111.5z"/>
	</g>
	<g>
		<linearGradient id="SVGID_1_" gradientUnits="userSpaceOnUse" x1="314.5" y1="1.8219" x2="314.5" y2="166.4657">
			<stop  offset="0" style="stop-color:#B3E8F4"/>
			<stop  offset="1" style="stop-color:#8BB0CC"/>
		</linearGradient>
		<circle class="st13" cx="314.5" cy="81.8" r="81.5"/>
		<g>
			<path class="st14" d="M322.6,91.4c-1.6,3.8-2.5,8-2.5,12.4c0,4.9,1.1,9.6,3,13.7c0.2,0.5,0.7,0.7,1.2,0.7h56.5
				c0.5,0,0.9-0.3,1.2-0.7c2-4.2,3-8.8,3-13.7c0-17.9-14.5-32.5-32.5-32.5"/>
			<path class="st14" d="M273.8,118.3h-25.1c-1.8,0-2.7-2.2-1.4-3.4l19.6-19.6c1.1-1.1,2.9-0.6,3.3,0.9l5.6,19.6
				C276.1,117,275.1,118.3,273.8,118.3z"/>
			<path class="st15" d="M342,49.6L342,49.6c0.3,1.8,0.4,3.6,0.4,5.5c0,21.5-17.4,38.9-38.9,38.9c-11.2,0-21.2-4.7-28.3-12.2l0,0
				c1.6,20.1,18.1,36.1,38.5,36.6c22.5,0.6,41.2-17.8,40.8-40.3C354.4,66.7,349.6,56.7,342,49.6z"/>
			<path class="st16" d="M351.9,40L351.9,40c0.3,2,0.5,4.1,0.5,6.3c0,24.5-19.8,44.3-44.3,44.3c-12.7,0-24.2-5.4-32.2-13.9l0,0
				c2.1,26.5,26.9,46.6,55,40.7c17-3.6,30.4-16.7,34.2-33.6C368.9,66.5,363.1,50.4,351.9,40z"/>
			<rect x="306.4" y="104.4" class="st17" width="17.4" height="13.9"/>
			<path class="st18" d="M321.4,118.3c2.3-4.6,3.6-9.9,3.6-15.4c0-19.1-15.5-34.5-34.5-34.5c-19.1,0-34.5,15.5-34.5,34.5
				c0,5.5,1.3,10.7,3.6,15.4L321.4,118.3L321.4,118.3z"/>
			<path class="st19" d="M276.9,95.5c1.1,3.7-1.1,7.6-4.8,8.6s-7.6-1.1-8.6-4.8"/>
			<path class="st20" d="M313.5,118.3H331l0,0c26.3-4.2,46.3-26.9,46.3-54.4c0-15.9-6.7-30.1-17.4-40.2l0,0c0.3,2.5,0.5,5,0.5,7.6
				c0.1,34.6-24.1,53.9-53.9,53.9"/>
			<path class="st18" d="M368,33.2c-7.3,40.3-47.4,50.2-47.4,50.2l-42.7-8.5c3.7,14.9,13.2,39,37,43.4h17.5c34.4-5.2,45-35,45-54.7
				C377.4,45.4,368,33.2,368,33.2z"/>
			<rect x="310" y="111.7" class="st18" width="16.6" height="6.6"/>
		</g>
	</g>
	<g>
		<g>
			<path class="st21" d="M78.5,165.8v41c0,8.8,7.2,16,16,16h203c8.8,0,16-7.2,16-16v-17.4"/>
			<g>
				<polygon class="st22" points="329.9,194.2 313.5,165.8 297.1,194.2 				"/>
			</g>
		</g>
	</g>
</g>
<g>
</g>
<g>
</g>
<g>
</g>
<g>
</g>
<g>
</g>
<g>
</g>
<g>
</g>
<g>
</g>
<g>
</g>
<g>
</g>
<g>
</g>
<g>
</g>
<g>
</g>
<g>
</g>
<g>
</g>
<g>
</g>
</svg>
