<?xml version="1.0" encoding="utf-8"?>
<!-- Generator: Adobe Illustrator 22.0.1, SVG Export Plug-In . SVG Version: 6.00 Build 0)  -->
<svg version="1.1" id="レイヤー_1" xmlns="http://www.w3.org/2000/svg" xmlns:xlink="http://www.w3.org/1999/xlink" x="0px"
	 y="0px" width="797.4px" height="572.6px" viewBox="0 0 797.4 572.6" style="enable-background:new 0 0 797.4 572.6;"
	 xml:space="preserve">
<style type="text/css">
	.st0{fill:#FFFFFF;}
	.st1{fill:#217346;}
	.st2{fill:none;stroke:#999999;stroke-width:1.144;stroke-miterlimit:10;}
	.st3{fill:#0173B9;}
	.st4{fill:#FFFFFF;stroke:#0173B9;stroke-width:5.378;stroke-miterlimit:10;}
	.st5{fill:#FFFFFF;stroke:#0173B9;stroke-width:6.5482;stroke-miterlimit:10;}
	.st6{fill:#EAAE1B;}
	.st7{fill:#FFFFFF;stroke:#EAAE1B;stroke-width:5.378;stroke-miterlimit:10;}
	.st8{fill:#FFFFFF;stroke:#EAAE1B;stroke-width:6.5482;stroke-miterlimit:10;}
</style>
<g>
	<rect x="2.9" y="2.3" class="st0" width="791.6" height="567.4"/>
	<g>
		<path class="st1" d="M792.2,4.6v562.8H5.1V4.6H792.2 M796.8,0H0.6v572h796.2V0L796.8,0z"/>
	</g>
</g>
<rect x="0.6" y="88.1" class="st2" width="99.5" height="30.2"/>
<rect x="100.1" y="88.1" class="st2" width="99.5" height="30.2"/>
<rect x="199.6" y="88.1" class="st2" width="99.5" height="30.2"/>
<rect x="299.2" y="88.1" class="st2" width="99.5" height="30.2"/>
<rect x="398.7" y="88.1" class="st2" width="99.5" height="30.2"/>
<rect x="498.2" y="88.1" class="st2" width="99.5" height="30.2"/>
<rect x="597.7" y="88.1" class="st2" width="99.5" height="30.2"/>
<rect x="697.3" y="88.1" class="st2" width="99.5" height="30.2"/>
<rect x="0.6" y="118.3" class="st2" width="99.5" height="30.2"/>
<rect x="100.1" y="118.3" class="st2" width="99.5" height="30.2"/>
<rect x="199.6" y="118.3" class="st2" width="99.5" height="30.2"/>
<rect x="299.2" y="118.3" class="st2" width="99.5" height="30.2"/>
<rect x="398.7" y="118.3" class="st2" width="99.5" height="30.2"/>
<rect x="498.2" y="118.3" class="st2" width="99.5" height="30.2"/>
<rect x="597.7" y="118.3" class="st2" width="99.5" height="30.2"/>
<rect x="697.3" y="118.3" class="st2" width="99.5" height="30.2"/>
<rect x="0.6" y="148.6" class="st2" width="99.5" height="30.2"/>
<rect x="100.1" y="148.6" class="st2" width="99.5" height="30.2"/>
<rect x="199.6" y="148.6" class="st2" width="99.5" height="30.2"/>
<rect x="299.2" y="148.6" class="st2" width="99.5" height="30.2"/>
<rect x="398.7" y="148.6" class="st2" width="99.5" height="30.2"/>
<rect x="498.2" y="148.6" class="st2" width="99.5" height="30.2"/>
<rect x="597.7" y="148.6" class="st2" width="99.5" height="30.2"/>
<rect x="697.3" y="148.6" class="st2" width="99.5" height="30.2"/>
<rect x="0.6" y="178.8" class="st2" width="99.5" height="30.2"/>
<rect x="100.1" y="178.8" class="st2" width="99.5" height="30.2"/>
<rect x="199.6" y="178.8" class="st2" width="99.5" height="30.2"/>
<rect x="299.2" y="178.8" class="st2" width="99.5" height="30.2"/>
<rect x="398.7" y="178.8" class="st2" width="99.5" height="30.2"/>
<rect x="498.2" y="178.8" class="st2" width="99.5" height="30.2"/>
<rect x="597.7" y="178.8" class="st2" width="99.5" height="30.2"/>
<rect x="697.3" y="178.8" class="st2" width="99.5" height="30.2"/>
<rect x="0.6" y="209.1" class="st2" width="99.5" height="30.2"/>
<rect x="100.1" y="209.1" class="st2" width="99.5" height="30.2"/>
<rect x="199.6" y="209.1" class="st2" width="99.5" height="30.2"/>
<rect x="299.2" y="209.1" class="st2" width="99.5" height="30.2"/>
<rect x="398.7" y="209.1" class="st2" width="99.5" height="30.2"/>
<rect x="498.2" y="209.1" class="st2" width="99.5" height="30.2"/>
<rect x="597.7" y="209.1" class="st2" width="99.5" height="30.2"/>
<rect x="697.3" y="209.1" class="st2" width="99.5" height="30.2"/>
<rect x="0.6" y="239.3" class="st2" width="99.5" height="30.2"/>
<rect x="100.1" y="239.3" class="st2" width="99.5" height="30.2"/>
<rect x="199.6" y="239.3" class="st2" width="99.5" height="30.2"/>
<rect x="299.2" y="239.3" class="st2" width="99.5" height="30.2"/>
<rect x="398.7" y="239.3" class="st2" width="99.5" height="30.2"/>
<rect x="498.2" y="239.3" class="st2" width="99.5" height="30.2"/>
<rect x="597.7" y="239.3" class="st2" width="99.5" height="30.2"/>
<rect x="697.3" y="239.3" class="st2" width="99.5" height="30.2"/>
<rect x="0.6" y="269.6" class="st2" width="99.5" height="30.2"/>
<rect x="100.1" y="269.6" class="st2" width="99.5" height="30.2"/>
<rect x="199.6" y="269.6" class="st2" width="99.5" height="30.2"/>
<rect x="299.2" y="269.6" class="st2" width="99.5" height="30.2"/>
<rect x="398.7" y="269.6" class="st2" width="99.5" height="30.2"/>
<rect x="498.2" y="269.6" class="st2" width="99.5" height="30.2"/>
<rect x="597.7" y="269.6" class="st2" width="99.5" height="30.2"/>
<rect x="697.3" y="269.6" class="st2" width="99.5" height="30.2"/>
<rect x="0.6" y="299.8" class="st2" width="99.5" height="30.2"/>
<rect x="100.1" y="299.8" class="st2" width="99.5" height="30.2"/>
<rect x="199.6" y="299.8" class="st2" width="99.5" height="30.2"/>
<rect x="299.2" y="299.8" class="st2" width="99.5" height="30.2"/>
<rect x="398.7" y="299.8" class="st2" width="99.5" height="30.2"/>
<rect x="498.2" y="299.8" class="st2" width="99.5" height="30.2"/>
<rect x="597.7" y="299.8" class="st2" width="99.5" height="30.2"/>
<rect x="697.3" y="299.8" class="st2" width="99.5" height="30.2"/>
<rect x="0.6" y="330" class="st2" width="99.5" height="30.2"/>
<rect x="100.1" y="330" class="st2" width="99.5" height="30.2"/>
<rect x="199.6" y="330" class="st2" width="99.5" height="30.2"/>
<rect x="299.2" y="330" class="st2" width="99.5" height="30.2"/>
<rect x="398.7" y="330" class="st2" width="99.5" height="30.2"/>
<rect x="498.2" y="330" class="st2" width="99.5" height="30.2"/>
<rect x="597.7" y="330" class="st2" width="99.5" height="30.2"/>
<rect x="697.3" y="330" class="st2" width="99.5" height="30.2"/>
<rect x="0.6" y="360.3" class="st2" width="99.5" height="30.2"/>
<rect x="100.1" y="360.3" class="st2" width="99.5" height="30.2"/>
<rect x="199.6" y="360.3" class="st2" width="99.5" height="30.2"/>
<rect x="299.2" y="360.3" class="st2" width="99.5" height="30.2"/>
<rect x="398.7" y="360.3" class="st2" width="99.5" height="30.2"/>
<rect x="498.2" y="360.3" class="st2" width="99.5" height="30.2"/>
<rect x="597.7" y="360.3" class="st2" width="99.5" height="30.2"/>
<rect x="697.3" y="360.3" class="st2" width="99.5" height="30.2"/>
<rect x="0.6" y="390.5" class="st2" width="99.5" height="30.2"/>
<rect x="100.1" y="390.5" class="st2" width="99.5" height="30.2"/>
<rect x="199.6" y="390.5" class="st2" width="99.5" height="30.2"/>
<rect x="299.2" y="390.5" class="st2" width="99.5" height="30.2"/>
<rect x="398.7" y="390.5" class="st2" width="99.5" height="30.2"/>
<rect x="498.2" y="390.5" class="st2" width="99.5" height="30.2"/>
<rect x="597.7" y="390.5" class="st2" width="99.5" height="30.2"/>
<rect x="697.3" y="390.5" class="st2" width="99.5" height="30.2"/>
<rect x="0.6" y="420.8" class="st2" width="99.5" height="30.2"/>
<rect x="100.1" y="420.8" class="st2" width="99.5" height="30.2"/>
<rect x="199.6" y="420.8" class="st2" width="99.5" height="30.2"/>
<rect x="299.2" y="420.8" class="st2" width="99.5" height="30.2"/>
<rect x="398.7" y="420.8" class="st2" width="99.5" height="30.2"/>
<rect x="498.2" y="420.8" class="st2" width="99.5" height="30.2"/>
<rect x="597.7" y="420.8" class="st2" width="99.5" height="30.2"/>
<rect x="697.3" y="420.8" class="st2" width="99.5" height="30.2"/>
<rect x="0.6" y="451" class="st2" width="99.5" height="30.2"/>
<rect x="100.1" y="451" class="st2" width="99.5" height="30.2"/>
<rect x="199.6" y="451" class="st2" width="99.5" height="30.2"/>
<rect x="299.2" y="451" class="st2" width="99.5" height="30.2"/>
<rect x="398.7" y="451" class="st2" width="99.5" height="30.2"/>
<rect x="498.2" y="451" class="st2" width="99.5" height="30.2"/>
<rect x="597.7" y="451" class="st2" width="99.5" height="30.2"/>
<rect x="697.3" y="451" class="st2" width="99.5" height="30.2"/>
<rect x="0.6" y="481.3" class="st2" width="99.5" height="30.2"/>
<rect x="100.1" y="481.3" class="st2" width="99.5" height="30.2"/>
<rect x="199.6" y="481.3" class="st2" width="99.5" height="30.2"/>
<rect x="299.2" y="481.3" class="st2" width="99.5" height="30.2"/>
<rect x="398.7" y="481.3" class="st2" width="99.5" height="30.2"/>
<rect x="498.2" y="481.3" class="st2" width="99.5" height="30.2"/>
<rect x="597.7" y="481.3" class="st2" width="99.5" height="30.2"/>
<rect x="697.3" y="481.3" class="st2" width="99.5" height="30.2"/>
<rect x="0.6" y="511.5" class="st2" width="99.5" height="30.2"/>
<rect x="100.1" y="511.5" class="st2" width="99.5" height="30.2"/>
<rect x="199.6" y="511.5" class="st2" width="99.5" height="30.2"/>
<rect x="299.2" y="511.5" class="st2" width="99.5" height="30.2"/>
<rect x="398.7" y="511.5" class="st2" width="99.5" height="30.2"/>
<rect x="498.2" y="511.5" class="st2" width="99.5" height="30.2"/>
<rect x="597.7" y="511.5" class="st2" width="99.5" height="30.2"/>
<rect x="697.3" y="511.5" class="st2" width="99.5" height="30.2"/>
<rect x="0.6" y="541.8" class="st2" width="99.5" height="30.2"/>
<rect x="100.1" y="541.8" class="st2" width="99.5" height="30.2"/>
<rect x="199.6" y="541.8" class="st2" width="99.5" height="30.2"/>
<rect x="299.2" y="541.8" class="st2" width="99.5" height="30.2"/>
<rect x="398.7" y="541.8" class="st2" width="99.5" height="30.2"/>
<rect x="498.2" y="541.8" class="st2" width="99.5" height="30.2"/>
<rect x="597.7" y="541.8" class="st2" width="99.5" height="30.2"/>
<rect x="697.3" y="541.8" class="st2" width="99.5" height="30.2"/>
<g>
	<rect x="0.6" class="st1" width="796.2" height="88.1"/>
</g>
<g>
	<rect x="90.9" y="144.1" class="st3" width="322.6" height="252.8"/>
	<circle class="st0" cx="205.9" cy="246.5" r="73.8"/>
	<rect x="248.2" y="200.8" class="st4" width="130.4" height="130.4"/>
	<polygon class="st5" points="250.7,225.4 163.3,375.2 338.1,375.2 	"/>
</g>
<g>
	<rect x="360.9" y="279.1" class="st6" width="322.6" height="252.8"/>
	<circle class="st0" cx="475.9" cy="381.5" r="73.8"/>
	<rect x="518.2" y="335.8" class="st7" width="130.4" height="130.4"/>
	<polygon class="st8" points="520.6,360.4 433.3,510.2 608,510.2 	"/>
</g>
<g>
</g>
<g>
</g>
<g>
</g>
<g>
</g>
<g>
</g>
<g>
</g>
<g>
</g>
<g>
</g>
<g>
</g>
<g>
</g>
<g>
</g>
<g>
</g>
<g>
</g>
<g>
</g>
<g>
</g>
</svg>
